<?xml version="1.0" encoding="UTF-8"?>
<svg xmlns="http://www.w3.org/2000/svg" xmlns:xlink="http://www.w3.org/1999/xlink" width="160.883pt" height="94.438pt" viewBox="0 0 160.883 94.438" version="1.1">
<defs>
<g>
<symbol overflow="visible" id="glyph0-0">
<path style="stroke:none;" d=""/>
</symbol>
<symbol overflow="visible" id="glyph0-1">
<path style="stroke:none;" d="M 2.84375 -1.390625 L 2.53125 -1.59375 C 1.921875 -0.65625 1.625 -0.375 1.296875 -0.375 C 1.171875 -0.375 1.078125 -0.484375 1.078125 -0.65625 C 1.078125 -0.734375 1.078125 -0.8125 1.109375 -0.890625 L 2.046875 -4.0625 L 3.140625 -4.0625 L 3.28125 -4.53125 L 2.1875 -4.53125 L 2.671875 -6.1875 L 1.8125 -6.1875 L 1.328125 -4.53125 L 0.390625 -4.53125 L 0.25 -4.0625 L 1.1875 -4.0625 L 0.4375 -1.546875 C 0.296875 -1.0625 0.25 -0.828125 0.25 -0.609375 C 0.25 -0.1875 0.5625 0.15625 0.96875 0.15625 C 1.4375 0.15625 1.984375 -0.15625 2.34375 -0.625 C 2.484375 -0.8125 2.578125 -0.96875 2.84375 -1.390625 Z M 2.84375 -1.390625 "/>
</symbol>
<symbol overflow="visible" id="glyph1-0">
<path style="stroke:none;" d=""/>
</symbol>
<symbol overflow="visible" id="glyph1-1">
<path style="stroke:none;" d="M 4.8125 -3.9375 C 4.8125 -4.703125 4.359375 -5.25 3.015625 -5.25 L 0.875 -5.25 L 0.828125 -4.90625 L 1.03125 -4.90625 C 1.5 -4.90625 1.59375 -4.875 1.59375 -4.703125 C 1.59375 -4.65625 1.5625 -4.5 1.53125 -4.359375 L 0.609375 -0.890625 C 0.5 -0.5 0.5 -0.5 0.4375 -0.4375 C 0.359375 -0.375 0.265625 -0.34375 -0.09375 -0.34375 L -0.203125 -0.34375 L -0.234375 0 L 2.078125 0 L 2.109375 -0.34375 L 1.921875 -0.34375 C 1.453125 -0.34375 1.34375 -0.375 1.34375 -0.53125 C 1.34375 -0.59375 1.34375 -0.59375 1.421875 -0.890625 L 1.796875 -2.3125 L 2 -2.3125 C 3.34375 -2.3125 3.53125 -2.34375 4.03125 -2.609375 C 4.53125 -2.890625 4.8125 -3.359375 4.8125 -3.9375 Z M 4 -4.015625 C 4 -3.328125 3.640625 -2.75 2.84375 -2.671875 C 2.734375 -2.65625 2.8125 -2.640625 2.09375 -2.65625 L 1.890625 -2.65625 L 2.390625 -4.5625 C 2.46875 -4.828125 2.5625 -4.90625 2.859375 -4.90625 L 2.953125 -4.90625 C 3.71875 -4.90625 4 -4.65625 4 -4.015625 Z M 4 -4.015625 "/>
</symbol>
<symbol overflow="visible" id="glyph1-2">
<path style="stroke:none;" d="M 5.1875 0 L 5.21875 -0.34375 L 5.03125 -0.34375 C 4.5625 -0.34375 4.46875 -0.375 4.46875 -0.53125 C 4.46875 -0.59375 4.484375 -0.75 4.53125 -0.890625 L 5.453125 -4.359375 C 5.5625 -4.75 5.5625 -4.75 5.625 -4.796875 C 5.703125 -4.875 5.78125 -4.90625 6.140625 -4.90625 L 6.265625 -4.90625 L 6.296875 -5.25 L 3.984375 -5.25 L 3.953125 -4.90625 L 4.140625 -4.90625 C 4.609375 -4.90625 4.71875 -4.875 4.71875 -4.703125 C 4.71875 -4.65625 4.6875 -4.53125 4.640625 -4.359375 L 4.25 -2.90625 L 1.921875 -2.90625 L 2.3125 -4.359375 C 2.40625 -4.75 2.40625 -4.75 2.484375 -4.796875 C 2.546875 -4.875 2.625 -4.90625 2.984375 -4.90625 L 3.109375 -4.90625 L 3.140625 -5.25 L 0.84375 -5.25 L 0.796875 -4.90625 L 0.984375 -4.90625 C 1.453125 -4.90625 1.5625 -4.875 1.5625 -4.703125 C 1.5625 -4.65625 1.53125 -4.5 1.5 -4.359375 L 0.5625 -0.890625 C 0.46875 -0.515625 0.453125 -0.5 0.40625 -0.4375 C 0.3125 -0.375 0.21875 -0.34375 -0.125 -0.34375 L -0.234375 -0.34375 L -0.28125 0 L 2.03125 0 L 2.078125 -0.34375 L 1.875 -0.34375 C 1.40625 -0.34375 1.3125 -0.375 1.3125 -0.53125 C 1.3125 -0.59375 1.3125 -0.59375 1.375 -0.890625 L 1.828125 -2.578125 L 4.15625 -2.578125 L 3.71875 -0.890625 C 3.609375 -0.515625 3.609375 -0.5 3.546875 -0.4375 C 3.46875 -0.375 3.390625 -0.34375 3.03125 -0.34375 L 2.90625 -0.34375 L 2.875 0 Z M 5.1875 0 "/>
</symbol>
<symbol overflow="visible" id="glyph1-3">
<path style="stroke:none;" d="M 4.578125 -1.78125 L 4.28125 -1.84375 C 3.640625 -0.671875 3.171875 -0.34375 2.140625 -0.34375 L 1.84375 -0.34375 C 1.453125 -0.34375 1.328125 -0.40625 1.328125 -0.578125 C 1.328125 -0.671875 1.34375 -0.703125 1.40625 -0.96875 L 2.3125 -4.359375 C 2.421875 -4.75 2.421875 -4.75 2.484375 -4.796875 C 2.5625 -4.875 2.734375 -4.90625 3.09375 -4.90625 L 3.25 -4.90625 L 3.296875 -5.25 L 0.84375 -5.25 L 0.8125 -4.90625 L 1 -4.90625 C 1.46875 -4.90625 1.5625 -4.875 1.5625 -4.703125 C 1.5625 -4.65625 1.546875 -4.5 1.5 -4.359375 L 0.578125 -0.890625 C 0.46875 -0.515625 0.46875 -0.5 0.40625 -0.4375 C 0.328125 -0.375 0.265625 -0.34375 -0.09375 -0.34375 L -0.234375 -0.34375 L -0.265625 0 L 4.015625 0 Z M 4.578125 -1.78125 "/>
</symbol>
<symbol overflow="visible" id="glyph2-0">
<path style="stroke:none;" d=""/>
</symbol>
<symbol overflow="visible" id="glyph2-1">
<path style="stroke:none;" d="M 3.671875 0 L 3.671875 -0.46875 L 3.484375 -0.46875 C 2.6875 -0.46875 2.59375 -0.515625 2.59375 -0.9375 L 2.59375 -6.265625 C 2.59375 -6.671875 2.6875 -6.734375 3.484375 -6.734375 L 3.671875 -6.734375 L 3.671875 -7.203125 L 0.375 -7.203125 L 0.375 -6.734375 L 0.578125 -6.734375 C 1.390625 -6.734375 1.46875 -6.671875 1.46875 -6.265625 L 1.46875 -0.9375 C 1.46875 -0.515625 1.390625 -0.46875 0.578125 -0.46875 L 0.375 -0.46875 L 0.375 0 Z M 3.671875 0 "/>
</symbol>
<symbol overflow="visible" id="glyph2-2">
<path style="stroke:none;" d="M 5.90625 0 L 5.90625 -0.359375 L 5.765625 -0.359375 C 5.140625 -0.359375 5.125 -0.421875 5.125 -0.828125 L 5.125 -2.796875 C 5.125 -3.515625 5.09375 -3.6875 4.921875 -4.03125 C 4.671875 -4.5 4.15625 -4.796875 3.5625 -4.796875 C 2.9375 -4.796875 2.4375 -4.5 2 -3.84375 L 2 -4.640625 L 0.265625 -4.53125 L 0.265625 -4.109375 L 0.625 -4.109375 C 1 -4.109375 1.0625 -4.03125 1.0625 -3.609375 L 1.0625 -0.828125 C 1.0625 -0.421875 1.046875 -0.359375 0.40625 -0.359375 L 0.265625 -0.359375 L 0.265625 0 L 2.796875 0 L 2.796875 -0.359375 L 2.65625 -0.359375 C 2 -0.359375 2 -0.421875 2 -0.828125 L 2 -2.265625 C 2 -2.75 2.0625 -3.203125 2.171875 -3.421875 C 2.375 -3.875 2.828125 -4.1875 3.265625 -4.1875 C 3.515625 -4.1875 3.8125 -4.03125 3.96875 -3.84375 C 4.109375 -3.625 4.1875 -3.3125 4.1875 -2.84375 L 4.1875 -0.828125 C 4.1875 -0.421875 4.171875 -0.359375 3.53125 -0.359375 L 3.390625 -0.359375 L 3.390625 0 Z M 5.90625 0 "/>
</symbol>
<symbol overflow="visible" id="glyph2-3">
<path style="stroke:none;" d="M 5.328125 -2.34375 C 5.328125 -3.71875 4.46875 -4.796875 3.375 -4.796875 C 2.765625 -4.796875 2.359375 -4.53125 2 -3.9375 L 2 -4.640625 L 0.28125 -4.53125 L 0.28125 -4.109375 L 0.640625 -4.109375 C 1 -4.109375 1.0625 -4.03125 1.0625 -3.609375 L 1.0625 1.1875 C 1.0625 1.578125 1.0625 1.65625 0.421875 1.65625 L 0.28125 1.65625 L 0.28125 2.015625 L 2.875 2.015625 L 2.875 1.65625 L 2.734375 1.65625 C 2.078125 1.65625 2 1.578125 2 1.1875 L 2 -0.65625 C 2.328125 -0.078125 2.71875 0.15625 3.3125 0.15625 C 4.46875 0.15625 5.328125 -0.921875 5.328125 -2.34375 Z M 4.28125 -2.40625 C 4.28125 -1.109375 3.875 -0.390625 3.171875 -0.390625 C 2.46875 -0.390625 2 -1.125 2 -2.265625 C 2 -3.515625 2.4375 -4.25 3.203125 -4.25 C 3.890625 -4.25 4.28125 -3.5625 4.28125 -2.40625 Z M 4.28125 -2.40625 "/>
</symbol>
<symbol overflow="visible" id="glyph2-4">
<path style="stroke:none;" d="M 5.921875 0 L 5.921875 -0.421875 L 5.671875 -0.421875 C 5.125 -0.421875 5.046875 -0.515625 5.046875 -1.15625 L 5.046875 -4.640625 L 3.171875 -4.53125 L 3.171875 -4.109375 L 3.671875 -4.109375 C 4.046875 -4.109375 4.109375 -4.03125 4.109375 -3.609375 L 4.109375 -2.375 C 4.109375 -1.8125 4.046875 -1.484375 3.890625 -1.15625 C 3.6875 -0.71875 3.296875 -0.453125 2.796875 -0.453125 C 2.5 -0.453125 2.234375 -0.5625 2.109375 -0.765625 C 1.96875 -0.953125 1.953125 -1.0625 1.953125 -1.609375 L 1.953125 -4.640625 L 0.203125 -4.53125 L 0.203125 -4.109375 L 0.59375 -4.109375 C 0.953125 -4.109375 1.015625 -4.03125 1.015625 -3.609375 L 1.015625 -1.453125 C 1.015625 -0.953125 1.0625 -0.71875 1.203125 -0.484375 C 1.46875 -0.078125 1.953125 0.15625 2.546875 0.15625 C 3.203125 0.15625 3.671875 -0.125 4.109375 -0.75 L 4.109375 0.0625 Z M 5.921875 0 "/>
</symbol>
<symbol overflow="visible" id="glyph2-5">
<path style="stroke:none;" d="M 3.734375 -1.578125 C 3.734375 -1.640625 3.734375 -1.71875 3.71875 -1.8125 L 3.296875 -1.8125 C 3.265625 -0.921875 3.015625 -0.453125 2.515625 -0.453125 C 2.0625 -0.453125 1.9375 -0.703125 1.9375 -1.5 L 1.9375 -4.21875 L 3.40625 -4.21875 L 3.40625 -4.640625 L 1.9375 -4.640625 L 1.9375 -6.625 L 1.53125 -6.625 C 1.421875 -5.328125 0.984375 -4.671875 0.171875 -4.609375 L 0.171875 -4.21875 L 1 -4.21875 L 1 -1.671875 C 1 -0.96875 1.015625 -0.734375 1.109375 -0.5 C 1.28125 -0.078125 1.671875 0.15625 2.25 0.15625 C 3.234375 0.15625 3.734375 -0.640625 3.734375 -1.578125 Z M 3.734375 -1.578125 "/>
</symbol>
<symbol overflow="visible" id="glyph2-6">
<path style="stroke:none;" d="M 7.3125 -3.59375 C 7.3125 -5.71875 5.828125 -7.34375 3.921875 -7.34375 C 1.84375 -7.34375 0.453125 -5.625 0.453125 -3.59375 C 0.453125 -1.46875 1.9375 0.15625 3.875 0.15625 C 5.828125 0.15625 7.3125 -1.46875 7.3125 -3.59375 Z M 5.984375 -3.59375 C 5.984375 -1.328125 5.25 -0.3125 3.875 -0.3125 C 2.5 -0.3125 1.765625 -1.328125 1.765625 -3.625 C 1.765625 -5.875 2.5 -6.875 3.90625 -6.875 C 5.21875 -6.875 5.984375 -5.890625 5.984375 -3.59375 Z M 5.984375 -3.59375 "/>
</symbol>
</g>
</defs>
<g id="surface1">
<path style="fill:none;stroke-width:0.59776;stroke-linecap:round;stroke-linejoin:round;stroke:rgb(0%,0%,0%);stroke-opacity:1;stroke-miterlimit:10;" d="M 0.00040625 0.00075 L 29.887125 0.00075 L 35.867594 19.926531 L 59.77775 19.926531 L 65.754312 0.00075 L 110.586344 0.00075 " transform="matrix(1,0,0,-1,45.316,24.907)"/>
<path style="fill:none;stroke-width:0.59776;stroke-linecap:round;stroke-linejoin:round;stroke:rgb(0%,0%,0%);stroke-opacity:1;stroke-miterlimit:10;" d="M 0.00040625 -19.925031 L 44.832438 -19.925031 L 50.809 -39.850813 L 80.699625 -39.850813 L 86.676187 -19.925031 L 110.586344 -19.925031 " transform="matrix(1,0,0,-1,45.316,24.907)"/>
<path style="fill:none;stroke-width:0.59776;stroke-linecap:butt;stroke-linejoin:miter;stroke:rgb(0%,0%,0%);stroke-opacity:1;stroke-dasharray:2.98883,2.98883;stroke-miterlimit:10;" d="M 32.875406 -49.815656 L 32.875406 9.961687 " transform="matrix(1,0,0,-1,45.316,24.907)"/>
<path style="fill:none;stroke-width:0.59776;stroke-linecap:butt;stroke-linejoin:miter;stroke:rgb(0%,0%,0%);stroke-opacity:1;stroke-dasharray:2.98883,2.98883;stroke-miterlimit:10;" d="M 47.820719 -49.815656 L 47.820719 -29.889875 " transform="matrix(1,0,0,-1,45.316,24.907)"/>
<path style="fill:none;stroke-width:0.59776;stroke-linecap:butt;stroke-linejoin:miter;stroke:rgb(0%,0%,0%);stroke-opacity:1;stroke-miterlimit:10;" d="M 35.992594 -49.815656 L 44.703531 -49.815656 " transform="matrix(1,0,0,-1,45.316,24.907)"/>
<path style="fill-rule:nonzero;fill:rgb(0%,0%,0%);fill-opacity:1;stroke-width:0.59776;stroke-linecap:butt;stroke-linejoin:miter;stroke:rgb(0%,0%,0%);stroke-opacity:1;stroke-miterlimit:10;" d="M 4.131721 0.00181625 L 0.963752 1.197129 L 2.014534 0.00181625 L 0.963752 -1.197402 Z M 4.131721 0.00181625 " transform="matrix(-1,0,0,1,83.17469,74.72084)"/>
<path style="fill-rule:nonzero;fill:rgb(0%,0%,0%);fill-opacity:1;stroke-width:0.59776;stroke-linecap:butt;stroke-linejoin:miter;stroke:rgb(0%,0%,0%);stroke-opacity:1;stroke-miterlimit:10;" d="M 4.129086 -0.00181625 L 0.965024 1.197402 L 2.015805 -0.00181625 L 0.965024 -1.197129 Z M 4.129086 -0.00181625 " transform="matrix(1,0,0,-1,88.15607,74.72084)"/>
<g style="fill:rgb(0%,0%,0%);fill-opacity:1;">
  <use xlink:href="#glyph0-1" x="75.812" y="84.53"/>
</g>
<g style="fill:rgb(0%,0%,0%);fill-opacity:1;">
  <use xlink:href="#glyph1-1" x="79.528" y="86.136"/>
  <use xlink:href="#glyph1-2" x="84.378891" y="86.136"/>
  <use xlink:href="#glyph1-3" x="90.43705" y="86.136"/>
</g>
<path style="fill:none;stroke-width:0.59776;stroke-linecap:butt;stroke-linejoin:miter;stroke:rgb(0%,0%,0%);stroke-opacity:1;stroke-dasharray:2.98883,2.98883;stroke-miterlimit:10;" d="M 62.766031 -49.815656 L 62.766031 9.961687 " transform="matrix(1,0,0,-1,45.316,24.907)"/>
<path style="fill:none;stroke-width:0.59776;stroke-linecap:butt;stroke-linejoin:miter;stroke:rgb(0%,0%,0%);stroke-opacity:1;stroke-dasharray:2.98883,2.98883;stroke-miterlimit:10;" d="M 83.687906 -49.815656 L 83.687906 -29.889875 " transform="matrix(1,0,0,-1,45.316,24.907)"/>
<path style="fill:none;stroke-width:0.59776;stroke-linecap:butt;stroke-linejoin:miter;stroke:rgb(0%,0%,0%);stroke-opacity:1;stroke-miterlimit:10;" d="M 65.883219 -49.815656 L 80.570719 -49.815656 " transform="matrix(1,0,0,-1,45.316,24.907)"/>
<path style="fill-rule:nonzero;fill:rgb(0%,0%,0%);fill-opacity:1;stroke-width:0.59776;stroke-linecap:butt;stroke-linejoin:miter;stroke:rgb(0%,0%,0%);stroke-opacity:1;stroke-miterlimit:10;" d="M 4.129406 0.00181625 L 0.965344 1.197129 L 2.016125 0.00181625 L 0.965344 -1.197402 Z M 4.129406 0.00181625 " transform="matrix(-1,0,0,1,113.063,74.72084)"/>
<path style="fill-rule:nonzero;fill:rgb(0%,0%,0%);fill-opacity:1;stroke-width:0.59776;stroke-linecap:butt;stroke-linejoin:miter;stroke:rgb(0%,0%,0%);stroke-opacity:1;stroke-miterlimit:10;" d="M 4.130394 -0.00181625 L 0.966331 1.197402 L 2.013206 -0.00181625 L 0.966331 -1.197129 Z M 4.130394 -0.00181625 " transform="matrix(1,0,0,-1,124.02195,74.72084)"/>
<g style="fill:rgb(0%,0%,0%);fill-opacity:1;">
  <use xlink:href="#glyph0-1" x="108.565" y="84.53"/>
</g>
<g style="fill:rgb(0%,0%,0%);fill-opacity:1;">
  <use xlink:href="#glyph1-1" x="112.281" y="86.136"/>
  <use xlink:href="#glyph1-3" x="117.131891" y="86.136"/>
  <use xlink:href="#glyph1-2" x="121.982782" y="86.136"/>
</g>
<g style="fill:rgb(0%,0%,0%);fill-opacity:1;">
  <use xlink:href="#glyph2-1" x="16.172" y="17.589"/>
  <use xlink:href="#glyph2-2" x="20.226778" y="17.589"/>
</g>
<g style="fill:rgb(0%,0%,0%);fill-opacity:1;">
  <use xlink:href="#glyph2-3" x="26.015049" y="17.589"/>
  <use xlink:href="#glyph2-4" x="31.733581" y="17.589"/>
  <use xlink:href="#glyph2-5" x="37.82073" y="17.589"/>
</g>
<g style="fill:rgb(0%,0%,0%);fill-opacity:1;">
  <use xlink:href="#glyph2-6" x="8.302" y="57.44"/>
  <use xlink:href="#glyph2-4" x="16.052903" y="57.44"/>
  <use xlink:href="#glyph2-5" x="22.140051" y="57.44"/>
  <use xlink:href="#glyph2-3" x="26.015503" y="57.44"/>
  <use xlink:href="#glyph2-4" x="31.734035" y="57.44"/>
  <use xlink:href="#glyph2-5" x="37.821184" y="57.44"/>
</g>
</g>
</svg>
